<?xml version="1.0" standalone="no"?>
<!DOCTYPE svg PUBLIC "-//W3C//DTD SVG 1.1//EN" "http://www.w3.org/Graphics/SVG/1.1/DTD/svg11.dtd">
<svg xmlns="http://www.w3.org/2000/svg">
<metadata>Copyright (C) 2014 by original authors @ fontello.com</metadata>
<defs>
<font id="fontello" horiz-adv-x="1000" >
<font-face font-family="fontello" font-weight="400" font-stretch="normal" units-per-em="1000" ascent="850" descent="-150" />
<missing-glyph horiz-adv-x="1000" />
<glyph glyph-name="webcam-fill" unicode="&#xe802;" d="m501 842c-271 1-493-221-492-491 2-272 219-489 490-489 270-1 491 219 491 489 0 270-219 490-489 491z m-153-655c-101 81-101 250 0 329-10-50-30-107-30-163 0-57 20-114 30-166z m76 52c-80 39-88 175 2 228-32-80-32-153-2-228z m134 108c-3-29-30-53-58-52-30 1-57 30-55 59 2 30 31 56 60 54 30-3 56-32 53-61z m19-111c33 79 31 153 2 228 74-34 93-170-2-228z m64-58c61 117 62 230-1 348 115-81 115-269 1-348z" horiz-adv-x="1000" />
<glyph glyph-name="chart-pie" unicode="&#xe81f;" d="m330 779q0 43 31 73t73 31l10 0q217-19 389-161 33-29 36-75t-29-79l-30-29q93-135 93-297 0-184-115-328-33-38-82-38-23 0-46 11-107-70-231-70-178 0-303 126t-126 304q0 149 93 265t237 151l0 116z m99-859q106 0 194 65l-240 248 0 334q-119-18-199-108t-80-212q0-135 95-231t230-95z m5 389l331 333q-145 121-331 137l0-470z m11-66l261-264q93 117 93 263 0 147-93 264z" horiz-adv-x="903" />
<glyph glyph-name="down-open" unicode="&#xe804;" d="m899 457q0-29-21-50l-363-363q-21-22-51-22-30 0-50 22l-363 363q-21 20-21 50 0 30 21 51l41 42q22 20 51 20 29 0 50-20l271-271 271 271q21 20 51 20 29 0 50-20l42-42q21-22 21-51z" horiz-adv-x="928.6" />
<glyph glyph-name="up-open" unicode="&#xe805;" d="m899 171q0-29-21-50l-42-42q-21-21-50-21-30 0-51 21l-271 271-271-271q-20-21-50-21t-50 21l-42 42q-21 20-21 50 0 30 21 51l363 363q21 21 50 21 29 0 51-21l363-363q21-21 21-51z" horiz-adv-x="928.6" />
<glyph glyph-name="admin-fill" unicode="&#xe806;" d="m412 367c31 21 39 47 22 71-16 21-47 25-65 7-8-8-14-21-16-32-3-22 13-35 30-47-48-26-57-69-60-117 50 0 99 0 148 0 2 52-17 90-59 118z m119-118c50 0 98 0 147 0 0 10 0 19 0 29-49 0-98 0-147 0 0-10 0-19 0-29z m147 117c-50 0-98 0-147 0 0-10 0-18 0-28 50 0 98 0 147 0 0 10 0 19 0 28z m-177 450c-256 0-463-208-463-464 0-256 207-464 463-464 256 0 464 208 464 464 0 256-208 464-464 464z m236-560c0-42-23-66-66-66-57-1-113 0-170 0-56 0-112 0-168 0-45 0-68 23-68 68-1 63-1 126 0 189 0 44 23 67 67 67 113 1 225 1 338 0 44 0 67-23 67-67 1-64 1-127 0-191z m-205 171c49 0 98 0 147 0 0 10 0 18 0 28-51 0-99 0-147 0 0-10 0-19 0-28z" horiz-adv-x="1000" />
<glyph glyph-name="admin" unicode="&#xe807;" d="m500 815c-254 0-461-206-461-461 0-255 207-461 461-461s462 206 462 461c0 255-207 461-462 461z m0-836c-207 0-375 168-375 375 0 207 168 375 375 375s375-168 375-375c0-207-167-375-375-375z m169 536c-113 1-225 1-337 0-44 0-67-23-67-67 0-62 0-125 0-188 0-45 23-68 68-68 56 0 112 0 167 0 57 0 113 0 170 0 42 0 65 24 66 67 0 63 0 126 0 189-1 44-24 67-67 67z m-346-263c3 47 12 90 59 116-16 11-32 24-29 46 2 12 8 24 16 32 18 19 49 14 64-7 17-23 10-50-21-70 42-28 61-66 58-117-48 0-97 0-147 0z m207 116c49 0 97 0 146 0 0-9 0-18 0-28-48 0-96 0-146 0 0 10 0 18 0 28z m147-117c-49 0-98 0-147 0 0 10 0 19 0 29 49 0 98 0 147 0 0-10 0-19 0-29z m0 177c-49 0-97 0-146 0 0 9 0 18 0 28 48 0 96 0 146 0 0-10 0-18 0-28z" horiz-adv-x="1000" />
<glyph glyph-name="team2" unicode="&#xe808;" d="m501 818c-258 0-468-209-467-466 0-256 211-466 467-466 258 0 468 210 467 466 0 258-209 466-467 466z m-5-846c-219 7-382 179-375 397 6 206 184 370 393 364 211-6 374-183 367-399-5-200-184-368-385-362z m205 297c0 31 0 61-1 90 0 32-21 53-52 54-11 0-22 0-32 0-30 0-59 0-89 0 0 20 0 39 0 58 24 4 28 9 28 34 0 18 0 37 0 55 0 19-8 27-28 27-20 1-40 1-61 0-18 0-26-8-26-27 0-17 0-34 0-52 0-28 2-31 28-38 0-19 0-37 0-57-39 0-77 0-114 0-40 0-59-20-60-59 0-28 0-57 0-85-24-5-29-10-29-33 0-19 0-38 0-57 1-18 9-26 27-27 21 0 41 0 62 0 19 1 27 9 27 27 0 18 0 35 0 53 0 27-2 30-28 38 0 28 0 56 0 84 39 0 77 0 115 0 0-29 0-57 0-84-26-7-28-11-28-37 0-18-1-36 0-54 0-19 8-27 27-27 21 0 41 0 62 0 18 1 26 9 26 26 0 19 0 37 0 56 0 25-3 30-28 35 0 28 0 57 0 86 39 0 77 0 115 0 0-29 0-58 0-86-24-5-28-10-28-34 0-19 0-38 0-57 1-17 9-25 26-26 21 0 42 0 63 0 18 0 26 9 27 27 0 19 0 38 0 57 0 23-5 28-29 33z" horiz-adv-x="1000" />
<glyph glyph-name="team-2-fill" unicode="&#xe809;" d="m470 182c19 0 38 0 56 0 0 19 0 37 0 56-20 0-38 0-56 0 0-19 0-38 0-56z m56 374c-20 0-38 0-56 0 0-20 0-38 0-57 19 0 37 0 56 0 0 20 0 38 0 57z m-229-374c19 0 38 0 56 0 0 19 0 37 0 56-20 0-38 0-56 0 0-19 0-38 0-56z m207 633c-252 4-463-202-468-459-6-254 202-467 459-472 252-5 467 201 471 452 5 266-196 475-462 479z m224-634c0-20-8-28-28-28-19 0-39 0-59 0-20 0-27 8-27 28-1 19-1 37 0 55 0 23 4 28 28 33 0 28 0 56 0 85-39 0-76 0-115 0 0-29 0-57 0-85 25-6 28-10 28-36 0-18 0-35 0-52 0-20-8-28-27-28-21 0-41 0-62 0-17 0-25 8-26 26 0 18 0 36 0 55 0 25 4 29 29 35 0 28 0 56 0 85-38 0-76 0-115 0 0-28 0-56 0-84 27-9 28-10 28-41 0-17 0-34 0-50-1-18-9-26-26-26-21 0-42 0-64 0-16 0-24 8-25 25 0 19 0 39 0 58 0 23 5 28 29 33 0 27 0 54 0 81 0 43 19 62 61 62 37 0 73 0 111 0 0 19 0 37 0 56-26 8-28 10-28 39 0 17 0 34 0 51 1 18 9 27 27 27 21 0 42 0 63 0 17-1 25-9 25-25 0-20 0-39 0-58 0-23-4-29-28-33 0-18 0-37 0-57 10 0 19 0 29 0 30 0 60 0 90 0 32-1 53-21 53-53 1-30 0-59 0-89 27-8 29-11 29-38 0-17 0-34 0-51z m-85 1c19 0 38 0 57 0 0 19 0 37 0 56-20 0-39 0-57 0 0-19 0-38 0-56z" horiz-adv-x="1000" />
<glyph glyph-name="team-fill" unicode="&#xe80a;" d="m504 815c-252 4-463-202-468-459-6-254 202-467 459-472 252-5 467 201 471 452 5 266-196 475-462 479z m-179-545c-27-1-54 0-83 0 4 29 23 43 46 53 11 5 23 8 34 11-4 10-9 20-12 31-6 17-3 34 6 49 11 21 33 21 45 1 13-23 13-46-2-67-7-12-6-16 8-18 11-2 21-7 31-10-22-17-43-32-64-47-2-2-6-3-9-3z m15-64c1 44 44 76 130 94-3 8-4 16-9 22-30 38-33 105-5 145 24 36 64 36 88 1 28-41 26-108-5-146-4-6-6-14-9-22 60-13 114-27 133-94-109 0-216 0-323 0z m335 64c-3 0-7 1-10 3-20 15-41 30-63 47 10 3 21 8 33 10 13 2 13 7 6 17-15 21-15 45-2 67 5 7 15 15 22 15 8 0 19-8 24-16 13-21 12-44-2-65-9-13-5-15 8-18 30-7 56-19 66-52 0-2 0-5 1-8-29 0-56-1-83 0z" horiz-adv-x="1000" />
<glyph glyph-name="auth" unicode="&#xe80b;" d="m501 818c-258 0-468-209-467-466 0-256 211-466 467-466 258 0 468 210 467 466 0 258-209 466-467 466z m-5-846c-219 7-382 179-375 397 6 206 184 370 393 364 211-6 374-183 367-399-5-200-184-368-385-362z m177 212c-117 0-234 0-352 0 3 24 19 39 36 53 27 21 58 36 91 46 14 4 19 20 11 32-9 16-17 32-25 49-2 2-4 5-6 7-12 10-16 27-10 41 2 6 3 13 4 19 2 17 1 34 5 50 4 18 17 30 35 37 23 8 47 8 71 0 25-9 37-30 40-56 1-8 0-16 1-24 1-10 2-20 4-29 4-14 0-29-10-38-3-2-5-5-7-8-8-16-15-32-24-47-9-13-4-28 11-33 39-13 76-31 106-60 10-11 18-22 19-39z" horiz-adv-x="1000" />
<glyph glyph-name="auth-fill" unicode="&#xe80c;" d="m504 815c-252 4-463-202-468-459-6-254 202-467 459-472 252-5 467 201 471 452 5 266-196 475-462 479z m-183-631c3 24 19 39 36 53 27 21 58 36 91 46 14 4 19 20 11 32-9 16-17 32-25 49-2 2-4 5-6 7-12 10-16 27-10 41 2 6 3 13 4 19 2 17 1 34 5 50 4 18 17 30 35 37 23 8 47 8 71 0 25-9 37-30 40-56 1-8 0-16 1-24 1-10 2-20 4-29 4-14 0-29-10-38-3-2-5-5-7-8-8-16-15-32-24-47-9-13-4-28 11-33 39-13 76-31 106-60 10-11 18-22 19-39-117 0-234 0-352 0z" horiz-adv-x="1000" />
<glyph glyph-name="webcam" unicode="&#xe80d;" d="m348 187c-10 52-30 109-30 166 0 56 20 113 30 163-101-79-101-248 0-329z m292 339c63-118 62-231 1-348 114 79 114 267-1 348z m-135-118c-29 2-58-24-60-54-2-29 25-58 55-59 28-1 55 23 58 52 3 29-23 58-53 61z m-81-169c-30 75-30 148 2 228-90-53-82-189-2-228z m155 225c29-75 31-149-2-228 95 58 76 194 2 228z m-80-602c-271 0-488 217-490 489-1 270 221 492 492 491 270-1 489-221 489-491 0-270-221-490-491-489z m-407 491c-1-220 182-406 401-408 230-1 413 181 413 409 0 221-180 406-397 407-234 1-417-178-417-408z" horiz-adv-x="1000" />
<glyph glyph-name="student" unicode="&#xe80e;" d="m498-139c-271 0-488 217-490 489-1 270 221 492 492 491 270-2 489-221 489-491 0-270-221-490-491-489z m-407 491c-1-220 182-407 401-408 230-1 413 181 413 409 0 221-180 406-397 407-234 1-417-178-417-408z m414-98c-25 0-84 26-146 57-1-3-1-6-1-9l0-79c36-28 90-44 145-44 59 0 108 20 145 55l0 68c0 4-1 8-2 11-60-32-117-59-141-59z m-2 269c-33 0-231-111-231-111s189-109 231-109c30 0 137 62 191 95l0-123 31 0 0 142c0 0-189 105-222 106z m-4-127c0 0-9 15-9 18 0 3 8 18 8 18s9-15 9-18c0-3-8-18-8-18z" horiz-adv-x="1000" />
<glyph glyph-name="team" unicode="&#xe80f;" d="m501 818c-258 0-468-209-467-466 0-256 211-466 467-466 258 0 468 210 467 466 0 258-209 466-467 466z m-5-846c-219 7-382 179-375 397 6 206 184 370 393 364 211-6 374-183 367-399-5-200-184-368-385-362z m34 328c60-13 114-27 133-94-109 0-216 0-323 0 1 44 44 76 130 94-3 8-4 16-9 22-30 38-33 105-5 145 24 36 64 36 88 1 28-41 26-108-5-146-4-6-6-14-9-22z m-132 20c-22-17-43-32-64-47-2-2-6-3-9-3-27-1-54 0-83 0 4 29 23 43 46 53 11 5 23 8 34 11-4 10-9 20-12 31-6 17-3 34 6 49 11 21 33 21 45 1 13-23 13-46-2-67-7-12-6-16 8-18 11-2 21-7 31-10z m360-50c-29 0-56-1-83 0-3 0-7 1-10 3-20 15-41 30-63 47 10 3 21 8 33 10 13 2 13 7 6 17-15 21-15 45-2 67 5 7 15 15 22 15 8 0 19-8 24-16 13-21 12-44-2-65-9-13-5-15 8-18 30-7 56-19 66-52 0-2 0-5 1-8z" horiz-adv-x="1000" />
<glyph glyph-name="agenda-fill" unicode="&#xe803;" d="m331 156h352v297h-352v-297z m264 242h55v-44h-55v44z m0-77h55v-55h-55v55z m-77 77h55v-44h-55v44z m0-77h55v-55h-55v55z m0-77h55v-55h-55v55z m-77 154h55v-44h-55v44z m0-77h55v-55h-55v55z m0-77h55v-55h-55v55z m-77 77h44v-55h-44v55z m0-77h44v-55h-44v55z m142 608c-277 0-503-226-503-503 0-277 226-502 503-502s502 225 502 502c0 277-225 503-502 503z m-198-288h56v-22h44v22h187v-22h55v22h55v-430h-397v430z" horiz-adv-x="1007.8" />
<glyph glyph-name="docs-fill" unicode="&#xe811;" d="m452 366l35 0 0-64-35 0z m0 97l35 0 0-64-35 0z m-58 0l35 0 0-64-35 0z m117-97l36 0 0-64-36 0z m-117 0l35 0 0-64-35 0z m174 0l36 0 0-64-36 0z m-57 97l36 0 0-64-36 0z m57 0l36 0 0-64-36 0z m-67 379c-271 1-494-221-492-491 2-272 219-489 490-489 270-1 490 219 491 489 0 270-219 490-489 491z m158-666l-32 0-51 0 0 60c0 0-8 12-26 12s-24-12-24-12l0-60-56 0 0 60c0 0-9 12-26 12s-25-12-25-12l0-60-53 0-27 0 0 19 19 0 0 324c0 5 4 8 8 8l261 0c5 0 9-3 9-8l0-324 23 0 0-19z" horiz-adv-x="1000" />
<glyph glyph-name="data" unicode="&#xe812;" d="m501-138c-271 0-489 217-490 489-2 270 221 492 492 491 270-2 489-221 488-491 0-270-220-490-490-489z m-408 491c-1-220 183-407 402-408 229-1 413 181 413 409 0 221-181 406-398 407-233 1-416-178-417-408z m494 83c33-18 59-39 79-61 3 1 5 1 8 1 3 0 7 0 10-1 6 9 11 19 16 29 0 0-1 1-1 1-34-2-78 5-113 44-13 14-23 29-32 43-1 0-3-1-4-1-2 0-4 1-6 1-5-4-10-9-16-14 2-4 3-8 3-12 0-1-1-3-1-4 19-7 37-16 57-26z m117-8c-17 45-49 84-90 109-13-6-28-14-43-24 0 0 0 0 0 0 0-6-2-12-6-15 8-13 19-27 32-42 34-36 70-42 100-39 1 4 4 8 7 11z m-276-214c15 1 33 4 51 9 1 4 2 8 4 11-17 24-33 52-47 86-1 0-2 0-2 0-1 0-2 0-3 0-11-36-14-69-11-100 3-1 6-3 8-6z m-32 0c2 2 4 4 7 5-1 31 3 67 14 105-10 6-17 17-17 29 0 12 7 23 17 29 0 1-1 2-1 4-6 24-9 47-10 69-6 2-11 8-13 14-35-4-65-15-90-29-12-27-19-57-19-88 0-47 15-90 40-125l34-6c0 0 14-5 38-7z m10-32c-4 1-7 4-10 7-14 0-28 1-42 3 17-15 36-28 57-37-2 8-4 17-5 27z m140 351c1 1 3 1 4 1 3 0 6-1 8-2 10 7 20 13 30 18-16 8-33 13-51 16 1-10 4-20 9-33z m128-210c-3 0-6 1-9 2-20-24-46-48-77-71-21-16-42-27-62-37 0-2-1-5-2-7 24-23 52-40 77-51 45 24 81 63 101 110-3 12-9 32-23 55-2-1-3-1-5-1z m-282 161c3 7 9 13 16 16 2 18 5 36 10 52-40-17-74-45-98-81 20 6 44 12 72 13z m120-284c-3-1-6-2-9-2-5 0-10 2-13 5-21-7-41-11-61-13-1-2-2-3-4-4 4-15 8-29 13-42 20-6 41-9 63-9 26 0 51 4 74 13-20 12-42 29-63 52z m201 197c0 0 0 0 0 0-5-10-11-21-18-31 4-5 6-10 6-16 0-5-2-10-4-14 6-10 11-20 16-29 3 14 5 29 5 45 0 15-2 30-5 45z m-210-151c7 0 13-3 18-8 34 15 72 39 111 75 8 7 14 14 21 21-4 4-6 10-6 16 0 4 1 8 3 12-26 30-66 61-126 86-5-7-13-11-23-11-2 0-5 1-7 1-13-17-26-37-39-60 7-6 12-15 12-25 0-12-6-22-15-28 0-1 1-2 1-4 11-30 25-56 41-77 3 1 6 2 9 2z m-65 237c12-1 24-2 37-5 4 10 15 17 26 17 5 0 9 0 12-2 6 5 11 11 16 16 0 1 0 2 0 4 0 6 3 12 7 16-5 14-9 27-11 38-8 1-16 2-24 2-18 0-36-3-54-7-7-18-13-40-17-67 4-3 7-7 8-12z m0-13c-2-5-5-10-10-13 0-21 2-45 7-71 2 0 4 0 5 0 9 18 20 37 32 56 2 2 4 5 6 7-3 5-5 10-6 16-11 2-23 4-34 5z" horiz-adv-x="1000" />
<glyph glyph-name="data-fill" unicode="&#xe813;" d="m503 842c-271 1-494-221-492-491 1-272 219-489 490-489 270-1 490 219 490 489 1 270-218 489-488 491z m201-414c-3-3-6-7-7-11-30-3-66 3-100 39-13 15-24 29-32 42 4 3 6 9 6 15 0 0 0 0 0 0 15 10 30 18 43 24 41-25 73-64 90-109z m-249-50c13 23 26 43 39 60 2 0 5-1 7-1 10 0 18 4 23 11 60-25 100-56 126-86-2-4-3-8-3-12 0-6 2-12 6-16-7-7-13-14-21-21-39-36-77-60-111-75-5 5-11 8-18 8-3 0-6-1-9-2-16 21-30 47-41 77 0 2-1 3-1 4 9 6 15 16 15 28 0 10-5 19-12 25z m132 58c-20 10-38 19-57 26 0 1 1 3 1 4 0 4-1 8-3 12 6 5 11 10 16 14 2 0 4-1 6-1 1 0 3 1 4 1 9-14 19-29 32-43 35-39 79-46 113-44 0 0 1-1 1-1-5-10-10-20-16-29-3 1-7 1-10 1-3 0-5 0-8-1-20 22-46 43-79 61z m1 114c-10-5-20-11-30-18-2 1-5 2-8 2-1 0-3 0-4-1-5 13-8 24-9 33 18-3 35-8 51-16z m-141 12c18 4 36 7 54 7 8 0 16-1 24-2 2-11 6-24 11-38-4-4-7-10-7-16 0-2 0-3 0-4-5-5-10-11-16-16-3 2-7 2-12 2-11 0-22-7-26-17-13 3-25 4-37 5-1 5-4 9-8 12 4 27 10 49 17 67z m-9-92c11-1 23-3 34-5 1-6 3-11 6-16-2-2-4-5-6-7-12-19-23-38-32-56-1 0-3 0-5 0-5 26-7 50-7 71 5 3 8 8 10 13z m-84-278c14-2 28-3 42-3 3-3 6-6 10-7 1-10 3-19 5-27-21 9-40 22-57 37z m63 132c-11-38-15-74-14-105-3-1-5-3-7-5-24 2-38 7-38 7l-34 6c-25 35-40 78-40 125 0 31 7 61 19 88 25 14 55 25 90 29 2-6 7-12 13-14 1-22 4-45 10-69 0-2 1-3 1-4-10-6-17-17-17-29 0-12 7-23 17-29z m-9 176c-7-3-13-9-16-16-28-1-52-7-72-13 24 36 58 64 98 81-5-16-8-34-10-52z m23-180c1 0 2 0 3 0 0 0 1 0 2 0 14-34 30-62 47-86-2-3-3-7-4-11-18-5-36-8-51-9-2 3-5 5-8 6-3 31 0 64 11 100z m70-185c-22 0-43 3-63 9-5 13-9 27-13 42 2 1 3 2 4 4 20 2 40 6 61 13 3-3 8-5 13-5 3 0 6 1 9 2 21-23 43-40 63-52-23-9-48-13-74-13z m100 24c-25 11-53 28-77 51 1 2 2 5 2 7 20 10 41 21 62 37 31 23 57 47 77 71 3-1 6-2 9-2 2 0 3 0 5 1 14-23 20-43 23-55-20-47-56-86-101-110z m112 148c-5 9-10 19-16 29 2 4 4 9 4 14 0 6-2 11-6 16 7 10 13 21 18 31 0 0 0 0 0 0 3-15 5-30 5-45 0-16-2-31-5-45z" horiz-adv-x="1000" />
<glyph glyph-name="blog" unicode="&#xe814;" d="m500-138c-272 0-489 217-491 489-1 270 222 492 492 491 271-1 489-221 489-491 0-270-220-490-490-489z m-408 491c-1-220 182-406 402-408 229-1 412 181 413 409 0 221-181 406-398 407-233 1-416-178-417-408z m510 43c-9-16-18-30-26-44-45 11-81-8-118-27 31 1 62 3 93-4-29-49-101-70-151-46-3-4-5-7-8-11-19-32-39-64-57-97-8-15-18-20-34-15 0 2 0 5 1 7 36 101 85 196 158 275 48 52 104 92 174 109 20 5 41 7 64 11-12-17-21-31-31-44-3-3-7-5-11-6-24-8-49-16-74-25 0-1 1-2 1-4 20 0 41 0 63 0-8-15-16-30-24-44-2-1-7-2-10-1-39 3-72-12-104-30 31 1 62 4 94-4z" horiz-adv-x="1000" />
<glyph glyph-name="blog-fill" unicode="&#xe815;" d="m501 842c-270 1-493-221-492-491 2-272 219-489 491-489 270-1 490 219 490 489 0 270-218 490-489 491z m166-332c-3-3-7-5-11-6-24-8-49-16-74-25 0-1 1-2 1-4 20 0 41 0 63 0-8-15-16-30-24-44-2-1-7-2-10-1-39 3-72-12-104-30 31 1 62 4 94-4-9-16-18-30-26-44-45 11-81-8-118-27 31 1 62 3 93-4-29-49-101-70-151-46-3-4-5-7-8-11-19-32-39-64-57-97-8-15-18-20-34-15 0 2 0 5 1 7 36 101 85 196 158 275 48 52 104 92 174 109 20 5 41 7 64 11-12-17-21-31-31-44z" horiz-adv-x="1000" />
<glyph glyph-name="agenda" unicode="&#xe801;" d="m708 564v-430h-404v430h54v-26h54v26h188v-26h54v26h54z m-27-107h-350v-296h350v296z m-323-189h54v54h-54v-54z m0-80h54v54h-54v-54z m81 161h54v54h-54v-54z m0-81h54v54h-54v-54z m0-80h54v54h-54v-54z m81 161h53v54h-53v-54z m0-81h53v54h-53v-54z m0-80h53v54h-53v-54z m80 161h54v54h-54v-54z m0-81h54v54h-54v-54z m-94-421c-277 0-503 225-503 502 0 277 226 503 503 503s502-226 502-503c0-277-225-502-502-502z m0 921c-231 0-419-188-419-419 0-231 188-419 419-419s418 188 418 419c0 231-187 419-418 419z" horiz-adv-x="1007.8" />
<glyph glyph-name="student-fill" unicode="&#xe800;" d="m500 841c-271 1-493-221-492-491 2-272 219-489 490-489 270-1 491 219 491 489 0 270-219 489-489 491z m148-607c-37-35-86-55-145-55-55 0-109 16-145 44l0 79c0 3 0 6 1 9 62-31 121-57 146-57 24 0 81 27 141 59 1-3 2-7 2-11l0-68z m77 41l-31 0 0 123c-54-33-161-95-191-95-42 0-231 109-231 109s198 111 231 111c33-1 222-106 222-106l0-142z m-235 139c0-3 9-18 9-18s8 15 8 18c0 3-9 18-9 18s-8-15-8-18z" horiz-adv-x="1000" />
<glyph glyph-name="facebook-squared" unicode="&#xe817;" d="m729 338l13 122h-110v61q0 27 8 38t40 11h62v122h-98q-85 0-122-40t-36-119v-73h-74v-122h74v-355h146v355h97z m128 280v-536q0-66-47-113t-114-48h-535q-67 0-114 48t-47 113v536q0 66 47 113t114 48h535q67 0 114-48t47-113z" horiz-adv-x="857.1" />
<glyph glyph-name="heart" unicode="&#xe81b;" d="m508-66q-17 0-29 9-26 17-85 58t-154 112-134 110q-106 106-106 264 0 116 82 198t198 82q143 0 228-118 38 55 99 86t129 32q117 0 198-82t81-198q0-158-106-264-38-38-133-110t-155-113-83-57q-13-9-30-9z m-228 729q-72 0-124-51t-52-125q0-114 76-190 79-79 328-248 248 169 327 248 76 76 76 190 0 73-51 125t-124 51q-73 0-125-51t-51-125q0-22-16-37t-36-15-37 15-15 37q0 73-52 125t-124 51z" horiz-adv-x="1015" />
<glyph glyph-name="members" unicode="&#xe816;" d="m599 273q-108 0-184 76t-76 184 76 183 184 77 184-77 77-183-77-184-184-76z m0 416q-65 0-111-46t-45-110 45-111 111-46 110 46 46 111-46 110-110 46z m416-469q-55 0-92 38t-38 92 38 92 92 38 93-38 38-92-38-92-93-38z m0 209q-31 0-54-23t-23-56q0-31 22-54t55-23 56 23 23 54-23 55-56 24z m0-240q80 0 131-34t52-79q0-22-53-40t-130-17q-42 0-82 6 0-2 0-7t1-7q0-41-96-72t-239-31q-150 0-242 31t-92 72q0 3 1 8t0 7q-50-7-83-7-82 0-132 17t-51 40q0 45 50 79t133 34q98 0 151-50 99 81 265 81t265-81q52 50 151 50z m-832-118q60 0 102 12 5 7 13 17-38 38-115 38-98 0-127-49 44-18 127-18z m416-60q131 0 216 30-25 30-82 53t-134 22q-81 0-138-22t-80-53q84-30 218-30z m416 60q84 0 126 19-12 19-45 33t-81 15q-76 0-115-37 5-6 13-18 40-12 102-12z m-832 149q-55 0-93 38t-37 92 38 92 92 38 91-38 39-92-38-92-92-38z m0 209q-33 0-56-24t-23-55 23-54 56-23 55 23 22 54q0 33-23 56t-54 23z" horiz-adv-x="1198" />
<glyph glyph-name="home" unicode="&#xe81e;" d="m1108 422q38-30 38-80 0-42-30-73t-75-31l-51 0 0-312q0-44-31-75t-74-30l-625 0q-42 0-73 30t-31 75l0 312-52 0q-44 0-74 31t-30 73q0 46 36 79 79 66 204 174t211 181 88 75l34 29 35-29q1-1 86-75t211-181 203-173z m-430-496l0 260-209 0 0-260 209 0z m207 416l156 0q-231 194-468 400-238-206-469-400l156 0 0-416 156 0 0 312 313 0 0-312 156 0 0 416z" horiz-adv-x="1146" />
<glyph glyph-name="workflow" unicode="&#xe81d;" d="m560 741l-156 0-45-178-176 51-79-136 133-128-133-127 79-135 176 50 45-178 156 0 44 178 178-50 77 135-132 127 132 128-77 136-178-51z m0 104q35 0 63-22t37-57l19-73 74 21q15 4 29 4 60 0 90-53l77-135q18-31 13-66t-30-60l-55-54 55-52q25-25 30-60t-13-67l-77-136q-30-51-90-51-14 0-29 3l-74 21-17-74q-9-35-37-57t-65-22l-156 0q-36 0-64 22t-37 57l-19 74-72-22q-15-4-29-4-60 0-90 53l-79 135q-18 31-13 67t31 61l55 52-55 53q-25 25-30 60t12 67l79 135q30 53 90 53 14 0 29-4l72-21 19 73q9 35 37 57t64 22l156 0z m-78-391q-44 0-74-30t-30-74 30-74 74-30 74 31 31 73-31 73-74 31z m0 52q65 0 110-45t46-111-46-111-110-45-111 45-46 111 46 111 111 45z" horiz-adv-x="963" />
<glyph glyph-name="docs" unicode="&#xe810;" d="m499-138c-271 0-488 217-490 489-2 270 221 492 492 491 270-1 489-221 489-491-1-270-221-490-491-489z m-408 491c0-220 183-406 402-408 229-1 413 181 413 409 0 221-181 406-398 407-233 1-416-178-417-408z m545-158l0 324c0 5-4 8-9 8l-261 0c-4 0-8-3-8-8l0-324-19 0 0-19 27 0 53 0 0 60c0 0 8 12 25 12 17 0 26-12 26-12l0-60 56 0 0 60c0 0 7 12 24 12 18 0 26-12 26-12l0-60 51 0 32 0 0 19-23 0z m-207 107l-35 0 0 64 35 0 0-64z m0 97l-35 0 0 64 35 0 0-64z m58-97l-35 0 0 64 35 0 0-64z m0 97l-35 0 0 64 35 0 0-64z m60-97l-36 0 0 64 36 0 0-64z m0 97l-36 0 0 64 36 0 0-64z m57-97l-36 0 0 64 36 0 0-64z m0 97l-36 0 0 64 36 0 0-64z" horiz-adv-x="1000" />
</font>
</defs>
</svg>
